<svg id="Layer_1" data-name="Layer 1" xmlns="http://www.w3.org/2000/svg" viewBox="0 0 341.94 341.94"><defs><style>.cls-1{fill:#ffff01;stroke:#000;stroke-linecap:round;stroke-miterlimit:10;}</style></defs><title>transparent_logo_yellow</title><path class="cls-1" d="M446.84,414.7,299.3,267.16a22.92,22.92,0,0,0-32.43,0L119.33,414.7a22.94,22.94,0,0,0,0,32.43L266.87,594.67a22.94,22.94,0,0,0,32.43,0L446.84,447.13A22.92,22.92,0,0,0,446.84,414.7Zm-229.7-72.59L279.25,280a4.91,4.91,0,0,1,6.95,0l62.11,62.11a4.92,4.92,0,0,1-3.48,8.39H220.61A4.91,4.91,0,0,1,217.14,342.11ZM201.5,492.64a4.91,4.91,0,0,1-8.39,3.47L131,434a4.92,4.92,0,0,1,0-6.94L193.11,365a4.91,4.91,0,0,1,8.39,3.47Zm14-120.16a7,7,0,0,1,7-7h93.21a7,7,0,0,1,4.93,2l36.88,36.87,22.37,22.37a6.22,6.22,0,0,1,0,8.77L319,496.46a7,7,0,0,1-4.93,2H222.48a7,7,0,0,1-7-7ZM348.43,521.89,286.32,584a4.91,4.91,0,0,1-6.95,0l-62.11-62.11a4.91,4.91,0,0,1,3.47-8.39H345A4.92,4.92,0,0,1,348.43,521.89ZM431,434.3,368,497.25h-26V495.8l61.51-61.5a6.23,6.23,0,0,0,0-8.78L342.05,364v0h27.42L431,425.52A6.22,6.22,0,0,1,431,434.3Z" transform="translate(-112.12 -259.94)"/></svg>